<svg xmlns="http://www.w3.org/2000/svg" shape-rendering="geometricPrecision" text-rendering="geometricPrecision" image-rendering="optimizeQuality" fill-rule="evenodd" clip-rule="evenodd" viewBox="0 0 512 487.432"><path fill-rule="nonzero" d="M241.517 295.253l239.104 18.465.065-.328c-.012.012-.021.059-.021-.018V174.061c0-.074.009-.029.012 0l-.053-.346-239.945 18.53c-8.619.643-16.127-5.823-16.769-14.441l-.062-1.51c0-2.271.483-4.427 1.353-6.375l32.984-94.239c5.382-14.042 5.678-26.556 2.546-35.349-1.19-3.342-2.816-5.906-4.725-7.473-1.303-1.068-2.872-1.66-4.595-1.646-3.825.036-8.799 2.443-14.705 7.882L49.427 218.55l.024.024c-12.076 12.076-18.116 19.812-18.116 25.544 0 5.732 6.04 13.464 18.116 25.541l.53.559 187.077 179.273c5.383 4.678 10.06 6.744 13.776 6.73h.062c1.767-.006 3.458-.687 4.932-1.895 2.008-1.643 3.689-4.246 4.876-7.597 3.026-8.529 2.721-20.606-2.596-34.375l-33.339-95.275a15.58 15.58 0 01-.874-5.14h-.047v-1.146c0-8.651 7.017-15.667 15.667-15.667.678 0 1.348.044 2.002.127zm239.927 18.525l.032.006c.086.005.033 0-.032-.006zm-2.295 31.216l-217.4-16.79 25.63 73.266c8.068 21.121 8.08 40.83 2.819 55.663-3.141 8.858-8.154 16.194-14.54 21.428-6.883 5.64-15.273 8.808-24.632 8.87h-.115c-11.002.024-22.901-4.426-34.467-14.518l-1.158-1.01L28.36 292.778l-1.06-.968C9.101 273.611 0 259.859 0 244.118c0-15.745 9.101-29.497 27.3-47.695l.029.029c61.11-61.11 126.243-119.857 188.203-180.368C227.546 5.023 239.847.105 251.168.002c9.344-.089 17.728 3.052 24.668 8.745 6.342 5.199 11.283 12.461 14.388 21.18 5.386 15.111 5.353 35.383-2.845 56.838l-25.342 72.44 217.112-16.766 2.218-.104c8.351 0 15.824 3.553 21.328 9.146 5.056 5.142 8.435 12.12 9.145 19.602l.05.515c.074.944.11 1.767.11 2.463v139.311c0 .696-.036 1.516-.11 2.463-.613 7.677-4.023 14.856-9.201 20.117-5.504 5.593-12.986 9.146-21.325 9.146l-2.215-.104zm1.528-31.622c.005-.032.003-.021 0 0zm0-139.311c.003.021.005.033 0 0z"/></svg>